<svg xmlns="http://www.w3.org/2000/svg" xmlns:svg="http://www.w3.org/2000/svg" id="svg4938" width="32" height="32" version="1.1"><metadata id="metadata4943"/><g id="layer1"><g style="font-size:72px;font-style:normal;font-variant:normal;font-weight:400;font-stretch:normal;text-align:start;line-height:125%;letter-spacing:0;word-spacing:0;writing-mode:lr-tb;text-anchor:start;fill:#000;fill-opacity:1;stroke:none;font-family:FontAwesome;-inkscape-font-specification:FontAwesome" id="text3017" transform="matrix(0.38339753,0,0,0.40552158,-32.550528,-82.646856)"><path id="path3144" d="m 156.40467,251.17438 c 1.01779,1.01787 1.52672,2.23662 1.52678,3.65625 -6e-5,1.41966 -0.4956,2.62501 -1.48661,3.61607 l -3.01339,3.0134 c -1.01791,1.01786 -2.23666,1.52679 -3.65625,1.52678 -1.44648,1e-5 -2.65184,-0.50892 -3.61607,-1.52678 l -19.52679,-19.48661 -19.52678,19.48661 c -0.9643,1.01786 -2.16966,1.52679 -3.61607,1.52678 -1.44644,1e-5 -2.6518,-0.50892 -3.616074,-1.52678 l -3.013393,-3.0134 c -1.017859,-0.96427 -1.526787,-2.16963 -1.526785,-3.61607 -2e-6,-1.41963 0.508926,-2.63838 1.526785,-3.65625 l 26.156247,-26.15625 c 0.99104,-0.99103 2.1964,-1.48656 3.61607,-1.48661 1.39283,5e-5 2.61158,0.49558 3.65625,1.48661 l 26.11608,26.15625"/></g></g></svg>