<svg xmlns="http://www.w3.org/2000/svg" xmlns:svg="http://www.w3.org/2000/svg" id="svg4986" width="32" height="32" version="1.1"><metadata id="metadata4991"/><g id="layer1"><g style="font-size:72px;font-style:normal;font-variant:normal;font-weight:400;font-stretch:normal;text-align:start;line-height:125%;letter-spacing:0;word-spacing:0;writing-mode:lr-tb;text-anchor:start;fill:#000;fill-opacity:1;stroke:none;font-family:FontAwesome;-inkscape-font-specification:FontAwesome" id="text3021" transform="matrix(0.38339748,0,0,0.40552158,-78.363595,-91.56011)"><path id="path3147" d="m 277.42382,253.6675 c -7e-5,1.41967 -0.4956,2.62503 -1.48661,3.61607 l -26.15625,26.15625 c -1.0179,1.01786 -2.23664,1.52679 -3.65625,1.52679 -1.44646,0 -2.65182,-0.50893 -3.61607,-1.52679 l -26.15625,-26.15625 c -1.01786,-0.96426 -1.52679,-2.16961 -1.52679,-3.61607 0,-1.41961 0.50893,-2.63836 1.52679,-3.65625 l 2.97321,-3.01339 c 1.04464,-0.99104 2.26338,-1.48657 3.65625,-1.48661 1.41963,4e-5 2.62499,0.49557 3.61607,1.48661 l 19.52679,19.52678 19.52678,-19.52678 c 0.99102,-0.99104 2.19638,-1.48657 3.61608,-1.48661 1.39279,4e-5 2.61154,0.49557 3.65625,1.48661 l 3.01339,3.01339 c 0.99101,1.04468 1.48654,2.26343 1.48661,3.65625"/></g></g></svg>