<svg xmlns="http://www.w3.org/2000/svg" xmlns:svg="http://www.w3.org/2000/svg" id="svg3243" width="32" height="32" version="1.1"><metadata id="metadata3248"/><g id="layer1"><path style="font-size:72px;font-style:normal;font-variant:normal;font-weight:400;font-stretch:normal;text-align:start;line-height:125%;letter-spacing:0;word-spacing:0;writing-mode:lr-tb;text-anchor:start;fill:#f08080;stroke:#000;stroke-width:1.5;stroke-miterlimit:4;stroke-opacity:1;stroke-dasharray:none;font-family:FontAwesome;-inkscape-font-specification:FontAwesome;fill-opacity:1" id="path3275" d="m 26.607099,9.8590516 c 1.095245,1.8715414 1.642877,3.9185224 1.642901,6.1409504 -2.4e-5,2.222445 -0.547656,4.274746 -1.642901,6.156901 -1.095291,1.87153 -2.584007,3.354927 -4.466146,4.450195 C 20.269405,27.702363 18.222426,28.249996 16,28.25 13.77755,28.249996 11.725251,27.702363 9.8430986,26.607098 7.9715637,25.51183 6.4881674,24.028433 5.3929018,22.156903 4.2976327,20.274748 3.75,18.222447 3.75,16.000002 3.75,13.777574 4.2976327,11.730593 5.3929018,9.8590516 6.4881674,7.9769071 7.9715637,6.4881926 9.8430986,5.392906 11.725251,4.2976563 13.77755,3.7500236 16,3.75 c 2.222426,2.36e-5 4.269405,0.5476563 6.140953,1.642906 1.882139,1.0952866 3.370855,2.5840011 4.466146,4.4661456"/><g id="g3758" transform="matrix(0.865313,0,0,0.865313,2.163376,2.175981)"><rect style="fill:#000;fill-opacity:1;stroke:none" id="rect4057" width="18" height="3" x="-31.782" y="-1.434" ry="0" transform="matrix(-0.70710678,-0.70710678,-0.70710678,0.70710678,0,0)"/><rect id="rect4059" width="18" height="3" x="-9.066" y="21.282" ry="0" transform="matrix(0.70710678,-0.70710678,0.70710678,0.70710678,0,0)" style="fill:#000;fill-opacity:1;stroke:none"/></g></g></svg>