<svg xmlns="http://www.w3.org/2000/svg" xmlns:svg="http://www.w3.org/2000/svg" id="svg3243" width="32" height="32" version="1.1"><metadata id="metadata3248"/><g id="layer1"><path style="font-size:72px;font-style:normal;font-variant:normal;font-weight:400;font-stretch:normal;text-align:start;line-height:125%;letter-spacing:0;word-spacing:0;writing-mode:lr-tb;text-anchor:start;fill:#9acd32;stroke:#000;stroke-width:1.5;stroke-miterlimit:4;stroke-opacity:1;stroke-dasharray:none;font-family:FontAwesome;-inkscape-font-specification:FontAwesome;fill-opacity:1" id="path3275" d="m 26.607098,9.8590516 c 1.095246,1.8715424 1.642877,3.9185224 1.642902,6.1409504 -2.5e-5,2.222447 -0.547656,4.274744 -1.642902,6.156901 -1.095289,1.871529 -2.584005,3.354927 -4.466145,4.450195 C 20.269406,27.702363 18.222425,28.249996 16,28.25 13.77755,28.249996 11.725251,27.702363 9.843099,26.607098 7.9715637,25.51183 6.4881673,24.028432 5.3929019,22.156903 4.2976327,20.274746 3.75,18.222449 3.75,16.000002 3.75,13.777574 4.2976327,11.730594 5.3929019,9.8590516 6.4881673,7.9769072 7.9715637,6.4881927 9.843099,5.3929062 11.725251,4.2976564 13.77755,3.7500236 16,3.75 c 2.222425,2.36e-5 4.269406,0.5476564 6.140953,1.6429062 1.88214,1.0952865 3.370856,2.584001 4.466145,4.4661454"/><path style="fill:#000;fill-opacity:1;stroke:none" id="rect4057" d="M 16.816995,19.463899 11.276562,13.923466 8.7414,16.458629 14.281832,21.999061 z"/><path style="fill:#000;fill-opacity:1;stroke:none" id="rect4059" d="m 11.792505,19.521247 9.473539,-9.340956 2.535164,2.535163 -9.473539,9.340957 z"/></g></svg>