<svg xmlns="http://www.w3.org/2000/svg" xmlns:svg="http://www.w3.org/2000/svg" xmlns:xlink="http://www.w3.org/1999/xlink" id="svg3088" width="256" height="256" version="1.1"><defs id="defs3090"><linearGradient id="linearGradient4212"><stop style="stop-color:#fff;stop-opacity:1" id="stop4214" offset="0"/><stop style="stop-color:#fff;stop-opacity:0" id="stop4216" offset="1"/></linearGradient><linearGradient id="linearGradient4192"><stop style="stop-color:#000;stop-opacity:1" id="stop4194" offset="0"/><stop style="stop-color:#000;stop-opacity:0" id="stop4196" offset="1"/></linearGradient><linearGradient id="linearGradient4184"><stop style="stop-color:teal;stop-opacity:1" id="stop4186" offset="0"/><stop style="stop-color:teal;stop-opacity:0" id="stop4188" offset="1"/></linearGradient><radialGradient id="radialGradient4218" cx="838.203" cy="202.054" r="1000" fx="838.203" fy="202.054" gradientTransform="matrix(0.22560237,0.00158871,-0.00124421,0.17667741,-58.273195,-92.03)" gradientUnits="userSpaceOnUse" xlink:href="#linearGradient4212"/><clipPath id="clipPath3159" clipPathUnits="userSpaceOnUse"><g style="fill:none;stroke:#006082;stroke-width:31.77269936;stroke-miterlimit:4;stroke-opacity:1;stroke-dasharray:none;display:inline" id="g3161" transform="matrix(0.6987131,0,0,0.6987131,-78.646361,-52.805193)"><path style="font-size:medium;font-style:normal;font-variant:normal;font-weight:400;font-stretch:normal;text-indent:0;text-align:start;text-decoration:none;line-height:normal;letter-spacing:normal;word-spacing:normal;text-transform:none;direction:ltr;block-progression:tb;writing-mode:lr-tb;text-anchor:start;baseline-shift:baseline;color:#000;fill:#006082;fill-opacity:1;stroke:none;stroke-width:22.20000076;marker:none;visibility:visible;display:inline;overflow:visible;enable-background:accumulate;font-family:Sans;-inkscape-font-specification:Sans" id="path3163" d="m 278.28751,285.55576 -11.21875,0.125 c -16.33799,0.18876 -35.43079,3.64775 -48.84375,17.25 -26.364,26.73607 -32.91414,67.45937 -31.40625,101.9375 2.03445,46.51772 21.53824,93.17387 51.28125,128.53125 20.69424,24.60055 50.34517,51.04821 86.53125,52.21875 28.80499,0.93178 49.7747,-20.70739 66.84375,-34 14.22825,-11.08034 33.86145,-24.04072 51.59375,-31.4375 17.0467,-7.1108 34.85246,-7.21617 34.21875,-7.21875 l 0.0312,0 0.0625,0 0.0312,0 c -0.16965,5.1e-4 17.2016,0.10729 34.25,7.21875 17.72836,7.39514 37.32827,20.3525 51.5625,31.4375 17.07402,13.29649 38.06968,34.93179 66.875,34 36.18608,-1.17054 65.83701,-27.6182 86.53125,-52.21875 29.74301,-35.35738 49.2468,-82.01353 51.28125,-128.53125 1.50789,-34.47813 -5.04224,-75.20143 -31.40625,-101.9375 -14.31952,-14.52161 -35.00767,-17.52645 -52.09375,-17.21875 -30.44885,0.54835 -54.3266,17.12605 -78.40625,27.34375 -35.97307,15.26442 -58.60927,33.089 -90.875,42.9375 -15.59991,4.76158 -25.34249,3.77253 -37.15625,3.96875 -0.48134,-0.0127 -0.42021,-0.003 -0.5,0 -0.0399,0.002 -0.3107,-0.002 -0.25,0 -0.0108,-2.1e-4 -0.0204,2.1e-4 -0.0312,0 -12.03376,-0.23364 -21.77727,0.85894 -37.59375,-3.96875 -32.26573,-9.8485 -54.90193,-27.67308 -90.875,-42.9375 -21.91783,-9.30038 -43.75001,-23.72976 -70.4375,-26.6875 l 0,-0.8125 z m 12.125,109.15625 c 17.37009,-0.31472 36.71128,6.52981 55.875,13.53125 14.81121,5.41127 29.02735,15.65317 45.09375,25.09375 5.88038,3.4553 11.12945,6.87537 18,11.21875 -3.34103,2.83649 -6.57004,5.62753 -10.96875,9 -12.59562,9.65701 -28.90684,19.70424 -39,22.0625 -29.76308,6.95412 -52.56809,2.47169 -79.75,-19.25 -5.78601,-4.62373 -15.92397,-18.36952 -23.34375,-30.375 -3.24397,-5.24887 -5.84449,-9.82258 -8.03125,-13.71875 2.542,-1.66751 5.0341,-3.34504 8.34375,-5.3125 9.27056,-5.51099 21.18825,-10.95207 26.46875,-11.6875 2.38753,-0.33252 4.80103,-0.517 7.3125,-0.5625 z m 372,0 c 3.16744,-0.0296 6.24552,0.14841 9.21875,0.5625 5.2805,0.73543 17.19819,6.17651 26.46875,11.6875 3.30965,1.96746 5.80175,3.64499 8.34375,5.3125 -2.18676,3.89617 -4.78728,8.46988 -8.03125,13.71875 -7.41978,12.00548 -17.55774,25.75127 -23.34375,30.375 -27.17889,21.71928 -50.01971,26.20376 -79.78125,19.25 -10.09225,-2.35805 -26.38134,-12.40603 -38.96875,-22.0625 -4.40014,-3.37558 -7.62824,-6.16178 -10.96875,-9 6.87055,-4.34338 12.11962,-7.76345 18,-11.21875 16.0664,-9.44058 30.28254,-19.68248 45.09375,-25.09375 18.47767,-6.7508 37.09414,-13.37374 53.96875,-13.53125 z"/></g></clipPath><linearGradient id="linearGradient3799" x1="456" x2="360" y1="160" y2="216" gradientTransform="matrix(-1,0,0,1,512,0)" gradientUnits="userSpaceOnUse" xlink:href="#linearGradient4055-4"/><linearGradient id="linearGradient4055-4"><stop id="stop4057-6" offset="0" style="stop-color:#000;stop-opacity:1"/><stop id="stop4059-2" offset="1" style="stop-color:#000;stop-opacity:0"/></linearGradient><radialGradient id="radialGradient3801" cx="256" cy="211.692" r="64" fx="256" fy="211.692" gradientTransform="matrix(1.3716765,0.0039729,-0.00294998,1.1635062,-93.675296,-62.76795)" gradientUnits="userSpaceOnUse" xlink:href="#linearGradient4141-7"/><linearGradient id="linearGradient4141-7"><stop id="stop4143-9" offset="0" style="stop-color:#fff;stop-opacity:1"/><stop id="stop4145-7" offset="1" style="stop-color:#fff;stop-opacity:0"/></linearGradient><radialGradient id="radialGradient3803" cx="256" cy="241.881" r="64" fx="256" fy="241.881" gradientTransform="matrix(0.7777373,0,-6.9715088e-8,1.4057042,56.899268,-12.013064)" gradientUnits="userSpaceOnUse" xlink:href="#linearGradient4038-5"/><linearGradient id="linearGradient4038-5"><stop style="stop-color:#fff;stop-opacity:1" id="stop4040-2" offset="0"/><stop style="stop-color:#fff;stop-opacity:0" id="stop4042-4" offset="1"/></linearGradient><linearGradient id="linearGradient3805" x1="456" x2="360" y1="160" y2="216" gradientTransform="matrix(1.0139304,0,0,1,-6.4637045,0)" gradientUnits="userSpaceOnUse" xlink:href="#linearGradient4020-4"/><linearGradient id="linearGradient4020-4"><stop style="stop-color:#000;stop-opacity:1" id="stop4022-5" offset="0"/><stop style="stop-color:#000;stop-opacity:0" id="stop4024-2" offset="1"/></linearGradient><clipPath id="clipPath3842" clipPathUnits="userSpaceOnUse"><rect id="rect3844" width="223.012" height="223.012" x="16.494" y="-175.506" ry="13.698" style="fill:#505050;fill-opacity:1;stroke:none"/></clipPath></defs><metadata id="metadata3093"/><g id="layer1" transform="translate(0,192)"><g id="g3058" clip-path="url(#clipPath3842)" style="opacity:1"><path id="path4133" d="m -964.91593,-192.97479 73.30951,-278.62259 1021.51963,417.731775 z" style="fill:sienna;fill-opacity:1;stroke:none"/><path style="fill:orange;fill-opacity:1;stroke:none" id="path4135" d="M -963.61466,95.127875 -964.91593,-192.97479 129.91321,-53.865605 z"/><path id="path4137" d="M -887.79122,373.07686 -963.61466,95.127875 129.91321,-53.865605 z" style="fill:khaki;fill-opacity:1;stroke:none"/><path style="fill:#9acd32;fill-opacity:1;stroke:none" id="path4139" d="M -742.61295,621.93046 -887.79122,373.07686 129.91321,-53.865605 z"/><path id="path4141" d="M -537.97345,824.72965 -742.61295,621.93046 129.91321,-53.865605 z" style="fill:#228b22;fill-opacity:1;stroke:none"/><path style="fill:#3cb371;fill-opacity:1;stroke:none" id="path4143" d="M -287.81858,967.65403 -537.97345,824.72965 129.91321,-53.865605 z"/><path id="path4145" d="M -9.19599,1040.9635 -287.81858,967.65403 129.91321,-53.865605 z" style="fill:#7fffd4;fill-opacity:1;stroke:none"/><path style="fill:teal;fill-opacity:1;stroke:none" id="path4147" d="M 278.90669,1039.6622 -9.19599,1040.9635 129.91321,-53.865605 z"/><path id="path4149" d="M 556.8557,963.83882 278.90669,1039.6622 129.91321,-53.865605 z" style="fill:#b0e0e6;fill-opacity:1;stroke:none"/><path style="fill:#87ceeb;fill-opacity:1;stroke:none" id="path4151" d="M 805.7092,818.66051 556.8557,963.83882 129.91321,-53.865605 z"/><path id="path4153" d="M 1008.5085,614.02109 805.7092,818.66051 129.91321,-53.865605 z" style="fill:#4682b4;fill-opacity:1;stroke:none"/><path style="fill:#1e90ff;fill-opacity:1;stroke:none" id="path4155" d="M 1151.4329,363.86618 1008.5085,614.02109 129.91321,-53.865605 z"/><path id="path4157" d="M 1224.7423,85.243635 1151.4329,363.86618 129.91321,-53.865605 z" style="fill:#6495ed;fill-opacity:1;stroke:none"/><path style="fill:#191970;fill-opacity:1;stroke:none" id="path4159" d="m 1223.441,-202.85902 244.4737,5.86844 -7.479,283.365984 -235.6934,-1.131769 -1094.82909,-139.10924 z"/><path id="path4161" d="M 1147.6176,-480.80801 1223.441,-202.85902 129.91321,-53.865605 z" style="fill:#0000cd;fill-opacity:1;stroke:none"/><path style="fill:#483d8b;fill-opacity:1;stroke:none" id="path4163" d="m 1002.4393,-729.66161 145.1783,248.8536 -1017.70439,426.942405 z"/><path id="path4165" d="m 797.7998,-932.46081 204.6395,202.7992 -872.52609,675.796005 z" style="fill:#9370db;fill-opacity:1;stroke:none"/><path style="fill:#8b008b;fill-opacity:1;stroke:none" id="path4167" d="M 547.645,-1075.3852 797.7998,-932.46081 129.91321,-53.865605 z"/><path id="path4169" d="M 269.02235,-1148.6947 547.645,-1075.3852 129.91321,-53.865605 z" style="fill:orchid;fill-opacity:1;stroke:none"/><path style="fill:#c71585;fill-opacity:1;stroke:none" id="path4171" d="m -19.08024,-1147.3933 288.10259,-1.3014 -139.10914,1094.829095 z"/><path id="path4173" d="m -297.02929,-1071.5701 277.94905,-75.8232 148.99345,1093.527695 z" style="fill:#db7093;fill-opacity:1;stroke:none"/><path style="fill:#ffb6c1;fill-opacity:1;stroke:none" id="path4175" d="m -545.88285,-926.39171 248.85356,-145.17839 426.9425,1017.704495 z"/><path id="path4177" d="m -748.68207,-721.7523 202.79922,-204.63941 675.79606,872.526105 z" style="fill:#b22222;fill-opacity:1;stroke:none"/><path style="fill:tomato;fill-opacity:1;stroke:none" id="path4179" d="M -891.60642,-471.59738 -748.68207,-721.7523 129.91321,-53.865605 z"/><rect id="rect4182" width="256" height="256" x="0" y="-192" ry="3.78" style="fill:url(#radialGradient4218);fill-opacity:1;stroke:none;display:inline"/></g></g><g id="layer3" style="display:inline"><g style="display:inline" id="mask_group" transform="matrix(3.364306,0,0,3.364306,21.129468,23.283381)"><g style="fill:none;stroke:none;display:inline" id="eyes" transform="matrix(0.09628644,0,0,0.09628644,-13.900612,-8.2957126)"><path id="path3911" d="m 290.22501,383.61826 c 20.26573,-0.36718 40.73803,7.19583 59.875,14.1875 16.78643,6.13291 31.49775,16.91475 46.90625,25.96875 10.4842,6.16049 30.96875,19.28125 30.96875,19.28125 0,0 -38.82581,37.01847 -66.03125,43.375 -32.32466,7.55263 -60.041,1.91037 -89.21875,-21.40625 -16.83219,-13.45099 -39.0625,-56.3125 -39.0625,-56.3125 0,0 30.15123,-21.96471 47.90625,-24.4375 2.88277,-0.40149 5.76115,-0.6038 8.65625,-0.65625 z" style="fill:none;stroke:none"/><path id="path3905" d="m 662.31876,383.61826 c 3.62101,-0.0338 7.24028,0.15439 10.84375,0.65625 17.75502,2.47279 47.90625,24.4375 47.90625,24.4375 0,0 -22.23031,42.86151 -39.0625,56.3125 -29.17775,23.31662 -56.92534,28.95888 -89.25,21.40625 -27.20544,-6.35653 -66,-43.375 -66,-43.375 0,0 20.48455,-13.12076 30.96875,-19.28125 15.4085,-9.054 30.11982,-19.83584 46.90625,-25.96875 18.4535,-6.74197 38.13407,-14.00499 57.6875,-14.1875 z" style="fill:none;stroke:none"/></g><g id="outline" transform="matrix(0.09628644,0,0,0.09628644,-13.900612,-8.2957126)" style="fill:none;stroke:#000;stroke-width:34.52383041;stroke-miterlimit:4;stroke-opacity:1;stroke-dasharray:none;display:inline"><path id="path3871" d="m 169.96875,100.5 c -14.66639,0.16945 -30.93901,3.67114 -41.0625,13.9375 -22.89313,23.21621 -29.64336,61.08236 -28.21875,93.65625 1.91143,43.70495 20.52619,88.39789 48.6875,121.875 19.75254,23.48109 47.70677,47.2892 78.375,48.28125 22.51282,0.72824 41.91608,-17.81666 59.6875,-31.65625 14.782,-11.51158 34.87713,-24.90852 54.125,-32.9375 19.40436,-8.09426 38.18432,-8.06391 38.53125,-8.0625 0,0 0.0595,10e-6 0.0625,0 0.33473,-10e-4 19.15169,-0.0344 38.5625,8.0625 19.24787,8.02898 39.31175,21.42592 54.09375,32.9375 17.77142,13.83959 37.20593,32.38449 59.71875,31.65625 30.66823,-0.99205 58.62246,-24.80016 78.375,-48.28125 28.16131,-33.47711 46.77607,-78.17005 48.6875,-121.875 1.42461,-32.57389 -5.32562,-70.44004 -28.21875,-93.65625 -10.79839,-10.95078 -28.62313,-14.18317 -44,-13.90625 -26.27537,0.47319 -48.88701,15.70649 -74.25,26.46875 -34.56835,14.66836 -57.60153,32.85381 -91.96875,43.34375 -17.59464,5.37044 -29.55939,4.21929 -40.6875,4.4375 -0.22725,-0.006 -0.4596,0.004 -0.6875,0 -11.12811,-0.21821 -23.06161,0.93294 -40.65625,-4.4375 C 304.75778,159.85381 281.7246,141.66836 247.15625,127 221.79326,116.23774 199.15037,101.00444 172.875,100.53125 c -0.96105,-0.0173 -1.92849,-0.0426 -2.90625,-0.0312 z M 193,187.34375 c 20.26573,-0.36718 40.73803,7.19583 59.875,14.1875 16.78643,6.13291 31.49775,16.91475 46.90625,25.96875 10.4842,6.16049 30.96875,19.28125 30.96875,19.28125 0,0 -38.82581,37.01847 -66.03125,43.375 -32.32466,7.55263 -60.041,1.91037 -89.21875,-21.40625 -16.83219,-13.45099 -39.0625,-56.3125 -39.0625,-56.3125 0,0 30.15123,-21.96471 47.90625,-24.4375 2.88277,-0.40149 5.76115,-0.6038 8.65625,-0.65625 z m 372.09375,0 c 3.62101,-0.0338 7.24028,0.15439 10.84375,0.65625 17.75502,2.47279 47.90625,24.4375 47.90625,24.4375 0,0 -22.23031,42.86151 -39.0625,56.3125 -29.17775,23.31662 -56.92534,28.95888 -89.25,21.40625 -27.20544,-6.35653 -66,-43.375 -66,-43.375 0,0 20.48455,-13.12076 30.96875,-19.28125 15.4085,-9.054 30.11982,-19.83584 46.90625,-25.96875 18.4535,-6.74197 38.13407,-14.00499 57.6875,-14.1875 z" transform="translate(97.225014,196.27451)" style="fill:none;stroke:#000;stroke-width:34.52383041;stroke-miterlimit:4;stroke-opacity:1;stroke-dasharray:none"/></g><path id="mask" d="m 12.102284,20.301441 c -1.480584,-0.02666 -3.1790105,0.289339 -4.2187498,1.34375 -2.2042975,2.235407 -2.8559206,5.863576 -2.71875,9 0.1840448,4.208194 1.975948,8.526608 4.6875004,11.75 1.9019014,2.260911 4.5783144,4.529479 7.5312494,4.625 2.167679,0.07012 4.038854,-1.698685 5.75,-3.03125 1.423307,-1.108409 3.365441,-2.414418 5.21875,-3.1875 1.885814,-0.786641 3.71875,-0.75 3.71875,-0.75 0,0 1.832936,-0.03664 3.71875,0.75 1.853309,0.773082 3.764193,2.079091 5.1875,3.1875 1.711146,1.332565 3.582321,3.10137 5.75,3.03125 2.952935,-0.09552 5.660598,-2.364089 7.5625,-4.625 2.711552,-3.223392 4.503455,-7.541806 4.6875,-11.75 0.13717,-3.136424 -0.514452,-6.764593 -2.71875,-9 -1.039739,-1.054411 -2.769416,-1.37041 -4.25,-1.34375 -2.529962,0.04556 -4.714138,1.49499 -7.15625,2.53125 -3.328463,1.412364 -5.534652,3.177461 -8.84375,4.1875 -1.697948,0.518262 -2.832701,0.375 -3.9375,0.375 -1.104799,0 -2.270802,0.143262 -3.96875,-0.375 -3.309098,-1.010039 -5.515287,-2.775136 -8.84375,-4.1875 -2.442112,-1.03626 -4.626288,-2.485688 -7.15625,-2.53125 z m 1.9375,8.34375 c 1.951314,-0.03535 3.938619,0.701798 5.78125,1.375 1.616305,0.590516 3.01637,1.628222 4.5,2.5 1.009486,0.593172 3,1.84375 3,1.84375 0,0 -3.755485,3.575452 -6.375,4.1875 -3.112427,0.727216 -5.784328,0.182574 -8.59375,-2.0625 -1.620711,-1.295148 -3.7499996,-5.4375 -3.7499996,-5.4375 0,0 2.9154316,-2.105654 4.6249996,-2.34375 0.277572,-0.03866 0.533741,-0.05745 0.8125,-0.0625 z m 36.03125,0 c 0.278759,0.0051 0.566178,0.02384 0.84375,0.0625 1.709568,0.238096 4.625,2.34375 4.625,2.34375 0,0 -2.160539,4.142352 -3.78125,5.4375 -2.809422,2.245074 -5.481323,2.789716 -8.59375,2.0625 -2.619515,-0.612048 -6.34375,-4.1875 -6.34375,-4.1875 0,0 1.959264,-1.250578 2.96875,-1.84375 1.48363,-0.871778 2.914945,-1.909484 4.53125,-2.5 1.842631,-0.673202 3.798686,-1.410354 5.75,-1.375 z" style="fill:#696969;fill-opacity:1;stroke:none"/><g style="opacity:.67181468;display:inline" id="lighting" clip-path="url(#clipPath3159)" transform="matrix(0.13780541,0,0,0.13780541,-3.079568,-1.0127332)"><path style="fill:url(#linearGradient3799);fill-opacity:1;stroke:none" id="path4032" d="M 48,144 200,144 96,360 56,296 z"/><rect id="rect4036" width="274.725" height="174.159" x="117.888" y="124.257" style="opacity:.50193092;fill:url(#radialGradient3801);fill-opacity:1;stroke:none"/><rect style="opacity:.49420848;fill:url(#radialGradient3803);fill-opacity:1;stroke:none" id="rect4048" width="176" height="150.586" x="168" y="225.414"/><path id="path4018" d="m 464,144 -154.11742,0 105.44876,216 40.55722,-64 z" style="fill:url(#linearGradient3805);fill-opacity:1;stroke:none"/></g></g></g></svg>